<svg width="257" height="252" xmlns="http://www.w3.org/2000/svg" xmlns:xlink="http://www.w3.org/1999/xlink" xml:space="preserve" overflow="hidden"><defs><clipPath id="clip0"><rect x="970" y="313" width="256" height="250"/></clipPath><clipPath id="clip1"><rect x="970" y="368" width="256" height="140"/></clipPath><clipPath id="clip2"><rect x="970" y="368" width="256" height="140"/></clipPath></defs><g transform="translate(-969 -312)"><g><g clip-path="url(#clip0)"><g clip-path="url(#clip1)"><g clip-path="url(#clip2)"><path d="M123.747 2.17926C125.664-0.726421 129.997-0.726421 131.986 2.17926L131.986 2.17926 172.693 62.8602 215.965 127.305C215.454 128.214 214.864 129.077 214.203 129.884 213.751 130.421 213.323 130.93 212.79 131.453L212.779 131.447 212.789 131.453C212.672 131.565 212.56 131.652 212.42 131.759L212.27 131.873C211.78 132.239 211.276 132.584 210.758 132.909 210.338 133.172 209.992 133.404 209.49 133.645 208.99 133.886 208.19 134.176 207.708 134.341 207.226 134.508 207.065 134.564 206.709 134.642 206.532 134.678 206.354 134.713 206.176 134.734 206.055 134.756 205.935 134.777 205.814 134.791 205.793 134.798 205.765 134.798 205.743 134.806L205.203 134.87C204.635 134.926 204.045 134.955 203.442 134.955 153.228 140.43 102.568 140.43 52.3542 134.955 52.2971 134.955 52.2408 134.955 52.1837 134.947L52.0132 134.947 51.9348 134.941 51.8572 134.941C51.8001 134.934 51.743 134.934 51.6868 134.926L51.6297 134.926C51.5513 134.919 51.4797 134.919 51.4029 134.912 50.9341 134.877 50.3878 134.758 49.9966 134.671 49.6045 134.593 49.3709 134.529 49.0445 134.457 45.1799 133.541 41.629 131.212 40.0018 127.44 39.9592 127.34 39.9234 127.241 39.8808 127.142L39.874 127.12 0.224907 25.995C-0.840538 23.154 2.07196 20.3123 4.91287 21.6624 4.98447 21.6624 5.12596 21.6624 5.19755 21.7332L83.0109 62.8594ZM250.607 21.734C253.456 20.1717 256.51 22.8702 255.515 25.8535L255.515 25.9958 215.966 127.306 172.694 62.8602 250.536 21.734Z" fill="#FF4B4B" fill-rule="nonzero" fill-opacity="1" transform="matrix(1.00115 0 0 1 970 368.08)"/><path d="M250.607 21.734 250.536 21.734 172.694 62.8602 215.966 127.306 255.515 25.9958 255.515 25.8535C256.51 22.8702 253.456 20.1717 250.607 21.734" fill="#7D353B" fill-rule="nonzero" fill-opacity="1" transform="matrix(1.00115 0 0 1 970 368.08)"/><path d="M131.986 2.17926C129.997-0.726421 125.664-0.726421 123.747 2.17926L83.0109 62.8602 127.838 86.5557 212.79 131.453C213.323 130.93 213.751 130.421 214.203 129.884 214.864 129.077 215.454 128.214 215.965 127.305L172.693 62.8602 131.986 2.17926Z" fill="#BD4043" fill-rule="nonzero" fill-opacity="1" transform="matrix(1.00115 0 0 1 970 368.08)"/></g></g></g></g></g></svg>