<?xml version="1.0" encoding="UTF-8"?>
<svg version="1.1" xmlns="http://www.w3.org/2000/svg" width="512" height="512">
<path d="M0 0 C0.78145766 -0.00205263 1.56291533 -0.00410527 2.36805353 -0.0062201 C5.00234556 -0.01190157 7.6365855 -0.01043144 10.27088261 -0.00901413 C12.17230495 -0.01159709 14.07372674 -0.01461006 15.97514778 -0.01801753 C21.21258556 -0.02609859 26.45000964 -0.02787771 31.68745291 -0.028615 C37.33102482 -0.03046358 42.97458959 -0.03800983 48.61815739 -0.04475021 C60.9629029 -0.05834095 73.30764517 -0.06435914 85.65239692 -0.06876087 C93.35589495 -0.0715215 101.05939173 -0.07575848 108.76288891 -0.08026505 C130.07940554 -0.09245766 151.39592063 -0.10279305 172.71244049 -0.10614014 C174.09089553 -0.10636177 175.46935058 -0.10658355 176.84780562 -0.10680549 C178.22960494 -0.10702613 179.61140426 -0.10724661 180.99320358 -0.10746694 C183.76537446 -0.10790949 186.53754534 -0.10835661 189.30971622 -0.10880661 C189.99705337 -0.108916 190.68439051 -0.10902539 191.39255605 -0.1091381 C213.69022407 -0.11277046 235.98785963 -0.12869792 258.28551521 -0.15199697 C281.85375161 -0.17657872 305.42196287 -0.19030543 328.99021393 -0.19150805 C341.84031327 -0.19242612 354.69037007 -0.19821164 367.54045773 -0.21632767 C378.47931648 -0.23169467 389.41811956 -0.2368692 400.35698705 -0.22858956 C405.94133605 -0.22467125 411.52557278 -0.22567011 417.1099081 -0.23964691 C422.21786014 -0.25231493 427.32561474 -0.25125121 432.43356622 -0.2390562 C434.28547678 -0.23708685 436.13740099 -0.24023423 437.98929232 -0.24890056 C440.49926874 -0.25990674 443.00853769 -0.25256694 445.51849365 -0.24050903 C446.60648084 -0.25190182 446.60648084 -0.25190182 447.71644756 -0.26352477 C453.10029687 -0.20737605 456.18356204 1.21405744 460.1346674 4.75642776 C462.75375843 9.99460983 461.57430723 15.91500647 459.92031193 21.29866409 C459.27933374 23.19177306 458.62341994 25.07987134 457.9549799 26.96345901 C457.60440022 27.98596252 457.25382053 29.00846603 456.89261723 30.0619545 C455.75766966 33.36080733 454.60309861 36.65237544 453.4471674 39.94392776 C452.66275003 42.20628695 451.87930547 44.46898367 451.0968256 46.7320137 C449.19324761 52.22622095 447.27306703 57.71445144 445.34774113 63.20106888 C444.16578103 66.57826857 442.99682533 69.95981142 441.83113956 73.34265518 C440.73277197 76.52534176 439.62149838 79.70341859 438.5096674 82.88142776 C438.13277775 83.97173294 437.7558881 85.06203812 437.36757755 86.18538284 C434.74711806 93.54994334 432.13320456 99.74209271 425.3221674 104.13142776 C416.48219579 108.11868707 407.38879834 107.55007556 397.89280033 107.51237869 C396.00014768 107.51583727 394.10749704 107.52060318 392.2148506 107.52656043 C387.02479262 107.53907217 381.83490034 107.53289922 376.64484179 107.52360177 C371.04359452 107.51681252 365.44237569 107.52729181 359.84113407 107.53554153 C348.87340903 107.54888156 337.90574558 107.54600013 326.93801812 107.53730361 C318.02618834 107.53052959 309.11437583 107.52960913 300.20254421 107.53287506 C298.93438051 107.53333476 297.66621681 107.53379446 296.35962391 107.53426809 C293.78344609 107.53522726 291.20726829 107.5361999 288.63109048 107.53718586 C265.16388516 107.54549642 241.6967212 107.53687785 218.22952328 107.52115807 C196.80604096 107.50691646 175.38261214 107.50819988 153.95913029 107.52254105 C129.88533005 107.53860253 105.81156631 107.54492143 81.73775882 107.53570426 C79.17195364 107.53474859 76.60614847 107.53380548 74.04034328 107.53287506 C72.14664827 107.53218082 72.14664827 107.53218082 70.2146968 107.53147256 C61.31018825 107.52888024 52.40569866 107.53325876 43.50119305 107.54031372 C32.65470199 107.54871837 21.80827608 107.54647017 10.96179251 107.53047149 C5.42589674 107.52257561 -0.10989031 107.5195197 -5.64578533 107.52941895 C-10.71042397 107.53833872 -15.7748528 107.53347789 -20.83947233 107.51748629 C-22.67442368 107.51412701 -24.50939264 107.51585818 -26.34433272 107.52311365 C-28.8337856 107.53220433 -31.3225149 107.52291212 -33.8119297 107.50895119 C-34.52838521 107.51597469 -35.24484071 107.52299818 -35.98300698 107.53023452 C-41.43999759 107.46885053 -45.4204507 106.08782541 -49.5528326 102.50642776 C-53.30429378 94.58667639 -49.22741257 85.64970636 -46.54892635 78.01424026 C-46.11615485 76.75021415 -45.68454319 75.48579041 -45.25401974 74.22099686 C-44.11980688 70.89993646 -42.96890727 67.58489548 -41.81461239 64.27077103 C-40.66614242 60.96249187 -39.53544602 57.6481527 -38.40244198 54.33455276 C-35.86282333 46.92103913 -33.27944981 39.52343707 -30.6778326 32.13142776 C-30.32311886 31.11899002 -29.96840511 30.10655228 -29.60294247 29.0634346 C-28.67055147 26.41308541 -27.72616088 23.76745318 -26.77548885 21.12361526 C-26.51529461 20.3833812 -26.25510036 19.64314713 -25.98702145 18.88048172 C-23.75885794 12.77742959 -20.99633036 7.6727611 -15.6778326 3.81892776 C-15.0178326 3.32779495 -14.3578326 2.83666214 -13.6778326 2.33064651 C-9.36598943 -0.25477508 -4.9017282 -0.01191957 0 0 Z " fill="#FF3618" transform="translate(50.67783260345459,70.86857223510742)"/>
<path d="M0 0 C0.76945542 -0.0060911 1.53891085 -0.01218221 2.3316831 -0.01845789 C4.89416192 -0.03502537 7.45614043 -0.0303212 10.0186615 -0.0255127 C11.86215732 -0.03285648 13.70564855 -0.04144362 15.5491333 -0.05117798 C20.54487094 -0.07336542 25.54044351 -0.0763262 30.53622365 -0.07443047 C34.70889034 -0.07431068 38.88152216 -0.08287764 43.05417913 -0.09120798 C52.89685584 -0.11043054 62.73944773 -0.11332939 72.58213806 -0.10656738 C82.73483964 -0.09992091 92.88717844 -0.12281805 103.03980643 -0.15988111 C111.76100956 -0.19056291 120.48209587 -0.20193998 129.20335191 -0.1980443 C134.41038889 -0.19597595 139.61714327 -0.20147013 144.8241291 -0.22593689 C149.71872307 -0.24817745 154.6127258 -0.24634861 159.50732231 -0.22600937 C161.30281406 -0.22259502 163.09834542 -0.2277067 164.89378357 -0.24199295 C167.34646498 -0.26016174 169.79713529 -0.24745637 172.24975586 -0.22705078 C172.95900225 -0.23956863 173.66824865 -0.25208648 174.39898735 -0.26498365 C179.9842772 -0.16545842 182.27122265 1.58674621 186.06138611 5.39440918 C188.75685611 10.78534918 186.88485891 16.48543666 185.15293884 21.89196777 C184.27949621 24.44757555 183.39386303 26.99632954 182.49497986 29.54284668 C182.01752699 30.92284968 181.54107004 32.3031976 181.06555176 33.68386841 C180.0666375 36.5761959 179.05982733 39.46559865 178.04649353 42.35290527 C176.7673124 45.99784153 175.50157531 49.64724758 174.24089432 53.29861832 C169.98449248 65.62442909 165.71023823 77.95195931 161.10435486 90.15222168 C160.8489946 90.84794281 160.59363434 91.54366394 160.33053589 92.26046753 C157.81495921 98.75771715 154.06220763 102.43219897 147.91800594 105.44563389 C144.36479402 106.62576981 141.06356775 106.6811003 137.36328125 106.66856384 C136.59553468 106.67380052 135.8277881 106.6790372 135.03677648 106.68443257 C132.46818521 106.69941581 129.89979344 106.70013734 127.3311615 106.70080566 C125.48796249 106.70842815 123.64476666 106.7168558 121.80157471 106.72602844 C116.79748914 106.74796839 111.79346467 106.75677139 106.78933644 106.76185489 C103.6630215 106.76549829 100.53672258 106.7717382 97.41041374 106.77885628 C86.50410636 106.8033466 75.59784653 106.8164023 64.69151306 106.81994629 C54.5240985 106.8235838 44.35698538 106.85349575 34.18966299 106.89535087 C25.46001844 106.93002835 16.73047395 106.94549427 8.00076097 106.94619232 C2.78697239 106.94698584 -2.42650893 106.95575937 -7.64022636 106.98418999 C-12.54298044 107.01032782 -17.44517151 107.0125998 -22.34796333 106.99653435 C-24.14668631 106.99471659 -25.94544135 107.00144003 -27.74409485 107.01735306 C-30.20123983 107.03776587 -32.65640588 107.027292 -35.11352539 107.00914001 C-36.17944134 107.02893997 -36.17944134 107.02893997 -37.26689094 107.04913992 C-42.85874814 106.95487836 -45.14520018 105.20720299 -48.93861389 101.39440918 C-51.1647896 96.94205776 -50.20645123 91.70780883 -48.76795959 87.12609863 C-48.22950045 85.58213096 -47.67756205 84.04281826 -47.11439514 82.50769043 C-46.81663681 81.66416016 -46.51887848 80.82062988 -46.21209717 79.95153809 C-45.23727999 77.19881756 -44.24484584 74.45285236 -43.25111389 71.70690918 C-42.56715256 69.79410579 -41.88422183 67.88093359 -41.20228577 65.96740723 C-40.15493579 63.02915471 -39.10655728 60.09131335 -38.05314636 57.15522766 C-35.72827012 50.66427439 -33.48631301 44.14997418 -31.29408264 37.61315918 C-30.44572533 35.10802539 -29.59573801 32.60345141 -28.74510193 30.09909058 C-28.21295464 28.52065073 -27.68695595 26.94012287 -27.16752625 25.35745239 C-21.53584124 8.23221515 -21.53584124 8.23221515 -14.93861389 3.39440918 C-9.84406864 0.84281926 -5.72062131 -0.04310943 0 0 Z " fill="#FF3618" transform="translate(156.93861389160156,202.6055908203125)"/>
<path d="M0 0 C0.75187088 -0.0049649 1.50374176 -0.00992981 2.27839661 -0.01504517 C4.75469898 -0.02959772 7.23093736 -0.03645615 9.70727539 -0.04199219 C11.43453471 -0.04774801 13.16179403 -0.05350568 14.88905334 -0.05926514 C18.5061167 -0.06975454 22.12315796 -0.07561111 25.74023438 -0.07910156 C30.36824904 -0.08459114 34.99597023 -0.10863766 39.62389278 -0.13707352 C43.19015858 -0.15571992 46.75635383 -0.1609065 50.32266426 -0.16243744 C52.02865776 -0.16545845 53.73465017 -0.17346833 55.44059563 -0.18662262 C57.82911291 -0.20373021 60.2169146 -0.20179199 62.60546875 -0.1953125 C63.30539948 -0.20452728 64.0053302 -0.21374207 64.72647095 -0.22323608 C69.32998687 -0.1842331 72.45248447 0.75399465 76.36743164 3.16113281 C79.65763983 7.10938264 79.6158058 10.14285763 79.36743164 15.16113281 C78.61729431 18.2288208 78.61729431 18.2288208 77.55078125 21.34570312 C77.1529393 22.52513489 76.75509735 23.70456665 76.34519958 24.91973877 C75.90367523 26.1930102 75.46185923 27.46618053 75.01977539 28.73925781 C74.56485649 30.07349753 74.11081751 31.40803755 73.65760803 32.74285889 C72.46151644 36.25695126 71.25232116 39.76640125 70.04064941 43.27514648 C68.83400217 46.77836757 67.64176369 50.28648473 66.44750977 53.79394531 C64.1862716 60.42645412 61.89346614 67.04749609 59.58392334 73.66333008 C58.48726759 76.81656613 57.40832783 79.97527052 56.33276367 83.13574219 C55.74267976 84.82692521 55.15148018 86.51771963 54.55883789 88.20800781 C54.31729477 88.93368958 54.07575165 89.65937134 53.82688904 90.40704346 C51.37295002 97.2626786 47.06009875 102.99092208 40.36743164 106.16113281 C36.50888077 107.46314417 32.5820096 107.31614564 28.55712891 107.32226562 C27.77453705 107.32723053 26.99194519 107.33219543 26.18563843 107.33731079 C23.60169592 107.35189334 21.01781475 107.35872701 18.43383789 107.36425781 C16.63549295 107.37001139 14.83714802 107.3757691 13.0388031 107.38153076 C9.27033198 107.39202886 5.50188212 107.39787968 1.73339844 107.40136719 C-3.09315575 107.40685699 -7.91942857 107.43090036 -12.74589443 107.45933914 C-16.45966921 107.47796777 -20.17337613 107.48317119 -23.88719368 107.48470306 C-25.66658127 107.48772836 -27.4459677 107.49575274 -29.22530937 107.50888824 C-31.71471457 107.52595761 -34.203431 107.52406679 -36.69287109 107.51757812 C-37.42602036 107.52679291 -38.15916962 107.53600769 -38.91453552 107.54550171 C-44.36745599 107.50101533 -47.5010747 106.14562691 -51.44506836 102.47363281 C-53.98663458 97.52426701 -52.82397707 92.24563915 -51.24658203 87.1550293 C-50.61046497 85.27646019 -49.96100929 83.40237183 -49.30053711 81.53222656 C-48.95273697 80.51651077 -48.60493683 79.50079498 -48.24659729 78.45429993 C-47.11663897 75.16471331 -45.96909044 71.88160424 -44.82006836 68.59863281 C-44.03770675 66.33946478 -43.25613451 64.08002324 -42.4753418 61.8203125 C-40.92411408 57.33811456 -39.36515826 52.85871628 -37.80004883 48.38134766 C-36.18296989 43.7512846 -34.58676257 39.11475544 -33.00923157 34.47108459 C-32.03130822 31.5958141 -31.04280855 28.72427421 -30.05093384 25.85379028 C-29.40048847 23.96321905 -28.76087792 22.06893103 -28.12158203 20.17456055 C-24.8855956 10.93447068 -21.60390915 5.48660069 -12.63256836 1.16113281 C-8.4422325 0.04818226 -4.30732169 0.00685938 0 0 Z " fill="#FF3618" transform="translate(219.632568359375,333.8388671875)"/>
</svg>
