<?xml version="1.0" encoding="UTF-8"?>
<svg xmlns="http://www.w3.org/2000/svg" xmlns:xlink="http://www.w3.org/1999/xlink"   viewBox="0 0 192 192" version="1.1">
<g>
<path style="fill-rule:nonzero;fill-opacity:1;stroke-width:5;stroke-linecap:butt;stroke-linejoin:miter;stroke:rgb(96.078431%,96.078431%,96.078431%);stroke-opacity:1;stroke-miterlimit:4;" fill="#f4f4f4" d="M 42.5 41 L 222.5 41 L 222.5 250 L 42.5 250 Z M 42.5 41 " transform="matrix(0.75,0,0,0.75,0,0)"/>
<path style="fill-rule:nonzero;fill-opacity:1;stroke-width:1;stroke-linecap:butt;stroke-linejoin:miter;stroke:rgb(0%,0%,0%);stroke-opacity:1;stroke-miterlimit:4;" fill="#e3b969" d="M 66.114583 203.338542 C 65.255208 204.307292 64.177083 204.197917 62.776042 202.802083 C 61.375 201.619792 61.161458 200.541667 62.130208 199.682292 C 62.989583 198.713542 64.067708 198.822917 65.46875 200.21875 C 66.869792 201.401042 67.083333 202.479167 66.114583 203.338542 Z M 59.223958 193.328125 C 60.192708 194.619792 60.192708 195.697917 59.223958 196.447917 C 58.364583 197.09375 57.395833 196.770833 56.427083 195.265625 C 55.458333 193.864583 55.458333 192.791667 56.427083 192.25 C 57.395833 191.494792 58.364583 191.817708 59.223958 193.328125 Z M 49.109375 183.317708 C 48.572917 184.072917 47.817708 184.177083 46.958333 183.640625 C 45.880208 183.104167 45.453125 182.458333 45.776042 181.703125 C 46.098958 181.166667 46.854167 181.057292 47.927083 181.380208 C 49.005208 181.916667 49.432292 182.5625 49.109375 183.317708 Z M 54.276042 189.020833 C 53.630208 189.776042 52.770833 189.666667 51.583333 188.484375 C 50.614583 187.302083 50.505208 186.4375 51.260417 185.791667 C 51.90625 185.145833 52.765625 185.255208 53.953125 186.328125 C 54.921875 187.510417 55.03125 188.375 54.276042 189.020833 Z M 75.588542 207.53125 C 75.15625 208.822917 74.083333 209.145833 72.46875 208.5 C 70.640625 208.067708 69.885417 207.208333 70.317708 206.026042 C 70.75 204.84375 71.822917 204.411458 73.4375 204.84375 C 75.161458 205.380208 75.911458 206.244792 75.588542 207.536458 Z M 86.026042 208.286458 C 86.026042 209.46875 85.166667 210.114583 83.333333 210.114583 C 81.505208 210.328125 80.536458 209.682292 80.536458 208.286458 C 80.536458 207.104167 81.395833 206.458333 83.229167 206.458333 C 85.057292 206.244792 86.026042 206.890625 86.026042 208.286458 Z M 95.604167 206.671875 C 95.817708 207.75 95.067708 208.5 93.34375 208.932292 C 91.619792 209.364583 90.546875 208.932292 90.328125 207.640625 C 90.114583 206.348958 90.864583 205.489583 92.588542 205.166667 C 94.416667 204.953125 95.385417 205.489583 95.604167 206.671875 Z M 255 48.567708 L 255 207.317708 C 255 220.447917 250.369792 231.640625 241.010417 241.005208 C 231.645833 250.369792 220.453125 254.994792 207.322917 254.994792 L 170.296875 254.994792 C 168.572917 254.994792 167.177083 254.885417 166.208333 254.78125 C 165.239583 254.671875 164.161458 254.348958 162.979167 253.921875 C 161.796875 253.489583 160.932292 252.739583 160.286458 251.552083 C 159.75 250.369792 159.427083 248.859375 159.427083 247.03125 L 159.427083 207.53125 C 159.427083 196.875 156.520833 189.020833 150.817708 184.067708 C 157.0625 183.421875 162.765625 182.453125 167.822917 181.052083 C 172.880208 179.760417 178.046875 177.609375 183.322917 174.59375 C 188.703125 171.578125 193.114583 167.921875 196.666667 163.614583 C 200.21875 159.203125 203.234375 153.5 205.385417 146.286458 C 207.645833 139.072917 208.723958 130.786458 208.723958 121.427083 C 208.723958 108.083333 204.416667 96.78125 195.703125 87.416667 C 199.791667 77.40625 199.364583 66.104167 194.411458 53.729167 C 191.291667 52.760417 186.875 53.296875 181.067708 55.557292 C 175.255208 57.708333 170.197917 60.1875 165.890625 62.875 L 159.645833 66.859375 C 149.421875 63.953125 138.765625 62.552083 127.895833 62.552083 C 117.026042 62.552083 106.369792 63.953125 96.145833 66.859375 C 94.421875 65.677083 92.057292 64.166667 89.151042 62.447917 C 86.244792 60.723958 81.614583 58.572917 75.375 56.098958 C 69.130208 53.625 64.395833 52.869792 61.166667 53.838542 C 56.322917 66.322917 55.890625 77.515625 59.984375 87.526042 C 51.265625 96.890625 46.963542 108.296875 46.963542 121.536458 C 46.963542 130.901042 48.041667 139.1875 50.302083 146.291667 C 52.5625 153.505208 55.46875 159.208333 59.020833 163.619792 C 62.572917 168.03125 66.984375 171.692708 72.364583 174.703125 C 77.744792 177.71875 82.911458 179.869792 87.864583 181.161458 C 92.921875 182.453125 98.520833 183.53125 104.869792 184.177083 C 100.458333 188.161458 97.765625 193.864583 96.796875 201.182292 C 94.427083 202.260417 91.953125 203.119792 89.369792 203.65625 C 86.677083 204.192708 83.557292 204.515625 79.901042 204.515625 C 76.239583 204.515625 72.6875 203.333333 69.03125 200.963542 C 65.479167 198.59375 62.359375 195.151042 59.885417 190.630208 C 57.838542 187.078125 55.151042 184.28125 51.8125 182.020833 C 48.583333 179.869792 45.786458 178.46875 43.635417 178.036458 L 40.296875 177.5 C 37.927083 177.5 36.421875 177.713542 35.453125 178.255208 C 34.59375 178.791667 34.270833 179.4375 34.59375 180.192708 C 34.916667 180.947917 35.453125 181.697917 36.098958 182.453125 C 36.744792 183.208333 37.5 183.854167 38.25 184.390625 L 39.432292 185.25 C 41.90625 186.328125 44.276042 188.479167 46.645833 191.494792 C 49.015625 194.614583 50.734375 197.416667 51.8125 199.890625 L 53.427083 203.65625 C 54.828125 207.854167 57.302083 211.192708 60.744792 213.770833 C 64.1875 216.354167 67.848958 217.96875 71.828125 218.723958 C 75.8125 219.479167 79.578125 219.802083 83.34375 219.90625 C 87.109375 220.015625 90.125 219.796875 92.489583 219.369792 L 96.255208 218.723958 C 96.255208 222.921875 96.255208 228.625 96.364583 235.729167 C 96.473958 242.942708 96.473958 246.598958 96.473958 246.921875 C 96.473958 249.395833 95.828125 251.229167 94.645833 252.520833 C 93.463542 253.8125 92.171875 254.458333 90.984375 254.671875 C 89.802083 254.885417 87.96875 254.885417 85.494792 254.885417 L 48.6875 254.885417 C 35.557292 254.885417 24.364583 250.255208 15 240.895833 C 5.635417 231.53125 1.010417 220.338542 1.010417 207.208333 L 1.010417 48.671875 C 1.010417 35.541667 5.640625 24.348958 15 14.984375 C 24.364583 5.619792 35.557292 0.994792 48.6875 0.994792 L 207.4375 0.994792 C 220.567708 0.994792 231.760417 5.625 241.125 14.984375 C 250.380208 24.239583 255.010417 35.541667 255.010417 48.5625 Z M 255 48.567708 " transform="matrix(0.75,0,0,0.75,0,0)"/>
</g>
</svg>
